<svg width="345" height="345" viewBox="0 0 345 345" fill="none" xmlns="http://www.w3.org/2000/svg">
<rect x="62.5" y="65.5" width="183" height="122" rx="3.5" fill="white"/>
<path d="M62 69C62 66.7909 63.7909 65 66 65H242C244.209 65 246 66.7909 246 69V72H62V69Z" fill="#E4E4E4"/>
<g filter="url(#filter0_d)">
<rect x="80.2002" y="106" width="33.6" height="42" rx="0.857143" fill="#F7F9FA"/>
<rect x="80.2002" y="106" width="33.6" height="42" rx="0.857143" stroke="#0061FE" stroke-linejoin="round"/>
</g>
<path d="M114.11 153.747C117.224 153.747 119.747 151.223 119.747 148.11C119.747 144.997 117.224 142.474 114.11 142.474C110.997 142.474 108.474 144.997 108.474 148.11C108.474 151.223 110.997 153.747 114.11 153.747Z" fill="#0061FF"/>
<path d="M114.098 144.823H113.979C114.018 144.821 114.058 144.821 114.098 144.821V143.932L115.593 145.426L114.098 146.921V146.021C112.947 146.027 112.016 146.962 112.016 148.114C112.016 148.564 112.158 148.981 112.4 149.322L111.547 150.175C111.092 149.611 110.82 148.894 110.82 148.114C110.82 146.301 112.287 144.831 114.098 144.826V144.823ZM114.113 151.402V152.291L112.619 150.796L114.113 149.302V150.201C115.264 150.196 116.196 149.261 116.196 148.109C116.196 147.659 116.054 147.242 115.812 146.901L116.665 146.047C117.119 146.611 117.391 147.328 117.391 148.109C117.391 149.921 115.925 151.391 114.113 151.397V151.4H114.233C114.193 151.401 114.153 151.402 114.113 151.402Z" fill="white"/>
<path fill-rule="evenodd" clip-rule="evenodd" d="M87.1998 120.286C87.1998 120.128 87.3277 120 87.4855 120H106.514C106.672 120 106.8 120.128 106.8 120.286V122.514C106.8 122.672 106.672 122.8 106.514 122.8H87.4855C87.3277 122.8 87.1998 122.672 87.1998 122.514V120.286ZM87.1992 125.886C87.1992 125.728 87.3271 125.6 87.4849 125.6H106.514C106.671 125.6 106.799 125.728 106.799 125.886V128.114C106.799 128.272 106.671 128.4 106.514 128.4H87.4849C87.3271 128.4 87.1992 128.272 87.1992 128.114V125.886ZM87.4849 131.2C87.3271 131.2 87.1992 131.328 87.1992 131.486V133.714C87.1992 133.872 87.3271 134 87.4849 134H100.914C101.071 134 101.199 133.872 101.199 133.714V131.486C101.199 131.328 101.071 131.2 100.914 131.2H87.4849Z" fill="#3BA0F3"/>
<g filter="url(#filter1_d)">
<rect x="136.2" y="110.2" width="33.6" height="33.6" rx="0.857143" fill="#F7F9FA"/>
</g>
<path d="M170.11 149.747C173.224 149.747 175.747 147.223 175.747 144.11C175.747 140.997 173.224 138.474 170.11 138.474C166.997 138.474 164.474 140.997 164.474 144.11C164.474 147.223 166.997 149.747 170.11 149.747Z" fill="#A5A9AF"/>
<path d="M172.476 144.009C173.13 144.09 173.636 144.647 173.636 145.323C173.636 146.055 173.043 146.648 172.311 146.648H170.433C170.427 146.648 170.422 146.648 170.416 146.648C170.41 146.648 170.404 146.648 170.398 146.648H169.074C169.023 146.648 168.973 146.645 168.923 146.639H168.355C167.38 146.639 166.59 145.849 166.59 144.874C166.59 143.9 167.38 143.11 168.355 143.11H168.377C168.52 142.112 169.379 141.346 170.416 141.346C171.554 141.346 172.476 142.268 172.476 143.406V144.009Z" fill="white"/>
<path fill-rule="evenodd" clip-rule="evenodd" d="M157.9 124.2C159.833 124.2 161.4 122.633 161.4 120.7C161.4 118.767 159.833 117.2 157.9 117.2C155.967 117.2 154.4 118.767 154.4 120.7C154.4 122.633 155.967 124.2 157.9 124.2ZM150.021 125.878C149.908 125.735 149.691 125.734 149.576 125.875L142.181 134.934C142.029 135.12 142.162 135.4 142.402 135.4H163.636C163.87 135.4 164.005 135.134 163.866 134.945L159.614 129.157C159.505 129.009 159.286 129 159.166 129.14L155.994 132.848C155.877 132.984 155.665 132.98 155.553 132.84L150.021 125.878Z" fill="#637282"/>
<g filter="url(#filter2_d)">
<rect x="192.2" y="106" width="33.6" height="42" rx="0.857143" fill="#F7F9FA"/>
</g>
<path d="M226.11 153.747C229.224 153.747 231.747 151.223 231.747 148.11C231.747 144.997 229.224 142.474 226.11 142.474C222.997 142.474 220.474 144.997 220.474 148.11C220.474 151.223 222.997 153.747 226.11 153.747Z" fill="#0061FF"/>
<path d="M226.098 144.823H225.979C226.018 144.821 226.058 144.821 226.098 144.821V143.932L227.593 145.426L226.098 146.921V146.021C224.947 146.027 224.016 146.962 224.016 148.114C224.016 148.564 224.158 148.981 224.4 149.322L223.547 150.175C223.092 149.611 222.82 148.894 222.82 148.114C222.82 146.301 224.287 144.831 226.098 144.826V144.823ZM226.113 151.402V152.291L224.619 150.796L226.113 149.302V150.201C227.264 150.196 228.196 149.261 228.196 148.109C228.196 147.659 228.054 147.242 227.812 146.901L228.665 146.047C229.119 146.611 229.391 147.328 229.391 148.109C229.391 149.921 227.925 151.391 226.113 151.397V151.4H226.233C226.193 151.401 226.153 151.402 226.113 151.402Z" fill="white"/>
<path fill-rule="evenodd" clip-rule="evenodd" d="M199.486 120C199.328 120 199.2 120.128 199.2 120.286V123.914C199.2 124.072 199.328 124.2 199.486 124.2H204.514C204.672 124.2 204.8 124.072 204.8 123.914V120.286C204.8 120.128 204.672 120 204.514 120H199.486ZM199.2 125.886C199.2 125.728 199.328 125.6 199.486 125.6H204.515C204.672 125.6 204.8 125.728 204.8 125.886V129.514C204.8 129.672 204.672 129.8 204.515 129.8H199.486C199.328 129.8 199.2 129.672 199.2 129.514V125.886ZM199.2 131.486C199.2 131.328 199.328 131.2 199.486 131.2H204.515C204.672 131.2 204.8 131.328 204.8 131.486V135.114C204.8 135.272 204.672 135.4 204.515 135.4H199.486C199.328 135.4 199.2 135.272 199.2 135.114V131.486ZM206.2 131.486C206.2 131.328 206.328 131.2 206.486 131.2H211.515C211.672 131.2 211.8 131.328 211.8 131.486V135.114C211.8 135.272 211.672 135.4 211.515 135.4H206.486C206.328 135.4 206.2 135.272 206.2 135.114V131.486ZM213.486 131.2C213.328 131.2 213.2 131.328 213.2 131.486V135.114C213.2 135.272 213.328 135.4 213.486 135.4H218.515C218.672 135.4 218.8 135.272 218.8 135.114V131.486C218.8 131.328 218.672 131.2 218.515 131.2H213.486ZM206.2 125.886C206.2 125.728 206.328 125.6 206.486 125.6H211.515C211.672 125.6 211.8 125.728 211.8 125.886V129.514C211.8 129.672 211.672 129.8 211.515 129.8H206.486C206.328 129.8 206.2 129.672 206.2 129.514V125.886ZM213.486 125.6C213.328 125.6 213.2 125.728 213.2 125.886V129.514C213.2 129.672 213.328 129.8 213.486 129.8H218.515C218.672 129.8 218.8 129.672 218.8 129.514V125.886C218.8 125.728 218.672 125.6 218.515 125.6H213.486ZM206.2 120.286C206.2 120.128 206.328 120 206.486 120H211.515C211.672 120 211.8 120.128 211.8 120.286V123.914C211.8 124.072 211.672 124.2 211.515 124.2H206.486C206.328 124.2 206.2 124.072 206.2 123.914V120.286ZM213.486 120C213.328 120 213.2 120.128 213.2 120.286V123.914C213.2 124.072 213.328 124.2 213.486 124.2H218.515C218.672 124.2 218.8 124.072 218.8 123.914V120.286C218.8 120.128 218.672 120 218.515 120H213.486Z" fill="#42C25F"/>
<circle cx="67.5" cy="68.5" r="1.5" fill="white"/>
<circle cx="72.5" cy="68.5" r="1.5" fill="white"/>
<circle cx="77.5" cy="68.5" r="1.5" fill="white"/>
<rect x="62.5" y="65.5" width="183" height="122" rx="3.5" stroke="#E4E4E4"/>
<rect x="184.5" y="89.5" width="97" height="192" rx="11.5" fill="white" stroke="#E4E4E4"/>
<path d="M255 93V89H211V93C211 94.1046 211.895 95 213 95H253C254.105 95 255 94.1046 255 93Z" fill="#E4E4E4"/>
<g filter="url(#filter3_d)">
<path d="M216.2 109.857C216.2 109.384 216.584 109 217.057 109H248.943C249.416 109 249.8 109.384 249.8 109.857V150.143C249.8 150.616 249.416 151 248.943 151H217.057C216.584 151 216.2 150.616 216.2 150.143V109.857Z" fill="#F7F9FA"/>
</g>
<g filter="url(#filter4_d)">
<path fill-rule="evenodd" clip-rule="evenodd" d="M215.7 109.857C215.7 109.108 216.308 108.5 217.057 108.5H248.943C249.693 108.5 250.3 109.108 250.3 109.857V150.143C250.3 150.892 249.693 151.5 248.943 151.5H217.057C216.308 151.5 215.7 150.892 215.7 150.143V109.857ZM217.057 109.5C216.86 109.5 216.7 109.66 216.7 109.857V150.143C216.7 150.34 216.86 150.5 217.057 150.5H248.943C249.14 150.5 249.3 150.34 249.3 150.143V109.857C249.3 109.66 249.14 109.5 248.943 109.5H217.057Z" fill="#0061FE"/>
</g>
<path d="M250.11 155.747C253.224 155.747 255.747 153.223 255.747 150.11C255.747 146.997 253.224 144.474 250.11 144.474C246.997 144.474 244.474 146.997 244.474 150.11C244.474 153.223 246.997 155.747 250.11 155.747Z" fill="#0061FF"/>
<path d="M250.098 146.823H249.979C250.018 146.821 250.058 146.821 250.098 146.821V145.932L251.593 147.426L250.098 148.921V148.021C248.947 148.027 248.016 148.962 248.016 150.114C248.016 150.564 248.158 150.981 248.4 151.322L247.547 152.175C247.092 151.611 246.82 150.894 246.82 150.114C246.82 148.301 248.287 146.831 250.098 146.826V146.823ZM250.113 153.402V154.291L248.619 152.796L250.113 151.302V152.201C251.264 152.196 252.196 151.261 252.196 150.109C252.196 149.659 252.054 149.242 251.812 148.901L252.665 148.047C253.119 148.611 253.391 149.328 253.391 150.109C253.391 151.921 251.925 153.391 250.113 153.397V153.4H250.233C250.193 153.401 250.153 153.402 250.113 153.402Z" fill="white"/>
<path fill-rule="evenodd" clip-rule="evenodd" d="M223.2 123.286C223.2 123.128 223.328 123 223.485 123H242.514C242.672 123 242.8 123.128 242.8 123.286V125.514C242.8 125.672 242.672 125.8 242.514 125.8H223.485C223.328 125.8 223.2 125.672 223.2 125.514V123.286ZM223.199 128.886C223.199 128.728 223.327 128.6 223.485 128.6H242.514C242.671 128.6 242.799 128.728 242.799 128.886V131.114C242.799 131.272 242.671 131.4 242.514 131.4H223.485C223.327 131.4 223.199 131.272 223.199 131.114V128.886ZM223.485 134.2C223.327 134.2 223.199 134.328 223.199 134.486V136.714C223.199 136.872 223.327 137 223.485 137H236.914C237.071 137 237.199 136.872 237.199 136.714V134.486C237.199 134.328 237.071 134.2 236.914 134.2H223.485Z" fill="#3BA0F3"/>
<g filter="url(#filter5_d)">
<path d="M216.2 170.057C216.2 169.584 216.584 169.2 217.057 169.2H248.943C249.416 169.2 249.8 169.584 249.8 170.057V201.943C249.8 202.416 249.416 202.8 248.943 202.8H217.057C216.584 202.8 216.2 202.416 216.2 201.943V170.057Z" fill="#F7F9FA"/>
</g>
<path d="M250.11 208.747C253.224 208.747 255.747 206.223 255.747 203.11C255.747 199.997 253.224 197.474 250.11 197.474C246.997 197.474 244.474 199.997 244.474 203.11C244.474 206.223 246.997 208.747 250.11 208.747Z" fill="#A5A9AF"/>
<path d="M252.476 203.009C253.13 203.09 253.636 203.648 253.636 204.323C253.636 205.055 253.043 205.648 252.311 205.648H250.433C250.427 205.648 250.422 205.648 250.416 205.648C250.41 205.648 250.404 205.648 250.398 205.648H249.074C249.023 205.648 248.973 205.645 248.923 205.639H248.355C247.38 205.639 246.59 204.849 246.59 203.874C246.59 202.9 247.38 202.11 248.355 202.11H248.377C248.52 201.112 249.379 200.346 250.416 200.346C251.554 200.346 252.476 201.268 252.476 202.406V203.009Z" fill="white"/>
<path fill-rule="evenodd" clip-rule="evenodd" d="M237.9 183.2C239.833 183.2 241.4 181.633 241.4 179.7C241.4 177.767 239.833 176.2 237.9 176.2C235.967 176.2 234.4 177.767 234.4 179.7C234.4 181.633 235.967 183.2 237.9 183.2ZM230.021 184.878C229.908 184.735 229.691 184.734 229.576 184.875L222.181 193.934C222.029 194.12 222.162 194.4 222.402 194.4H243.636C243.87 194.4 244.005 194.134 243.866 193.945L239.614 188.157C239.505 188.009 239.286 188 239.166 188.14L235.994 191.848C235.877 191.984 235.665 191.98 235.553 191.84L230.021 184.878Z" fill="#637282"/>
<g filter="url(#filter6_d)">
<path d="M216.2 221.857C216.2 221.384 216.584 221 217.057 221H248.943C249.416 221 249.8 221.384 249.8 221.857V262.143C249.8 262.616 249.416 263 248.943 263H217.057C216.584 263 216.2 262.616 216.2 262.143V221.857Z" fill="#F7F9FA"/>
</g>
<path d="M250.11 268.747C253.224 268.747 255.747 266.223 255.747 263.11C255.747 259.997 253.224 257.474 250.11 257.474C246.997 257.474 244.474 259.997 244.474 263.11C244.474 266.223 246.997 268.747 250.11 268.747Z" fill="#A5A9AF"/>
<path d="M252.476 263.009C253.13 263.09 253.636 263.648 253.636 264.323C253.636 265.055 253.043 265.648 252.311 265.648H250.433C250.427 265.648 250.422 265.648 250.416 265.648C250.41 265.648 250.404 265.648 250.398 265.648H249.074C249.023 265.648 248.973 265.645 248.923 265.639H248.355C247.38 265.639 246.59 264.849 246.59 263.874C246.59 262.9 247.38 262.11 248.355 262.11H248.377C248.52 261.112 249.379 260.346 250.416 260.346C251.554 260.346 252.476 261.268 252.476 262.406V263.009Z" fill="white"/>
<path fill-rule="evenodd" clip-rule="evenodd" d="M223.486 235C223.328 235 223.2 235.128 223.2 235.286V238.914C223.2 239.072 223.328 239.2 223.486 239.2H228.514C228.672 239.2 228.8 239.072 228.8 238.914V235.286C228.8 235.128 228.672 235 228.514 235H223.486ZM223.2 240.886C223.2 240.728 223.328 240.6 223.486 240.6H228.515C228.672 240.6 228.8 240.728 228.8 240.886V244.514C228.8 244.672 228.672 244.8 228.515 244.8H223.486C223.328 244.8 223.2 244.672 223.2 244.514V240.886ZM223.2 246.486C223.2 246.328 223.328 246.2 223.486 246.2H228.515C228.672 246.2 228.8 246.328 228.8 246.486V250.114C228.8 250.272 228.672 250.4 228.515 250.4H223.486C223.328 250.4 223.2 250.272 223.2 250.114V246.486ZM230.2 246.486C230.2 246.328 230.328 246.2 230.486 246.2H235.515C235.672 246.2 235.8 246.328 235.8 246.486V250.114C235.8 250.272 235.672 250.4 235.515 250.4H230.486C230.328 250.4 230.2 250.272 230.2 250.114V246.486ZM237.486 246.2C237.328 246.2 237.2 246.328 237.2 246.486V250.114C237.2 250.272 237.328 250.4 237.486 250.4H242.515C242.672 250.4 242.8 250.272 242.8 250.114V246.486C242.8 246.328 242.672 246.2 242.515 246.2H237.486ZM230.2 240.886C230.2 240.728 230.328 240.6 230.486 240.6H235.515C235.672 240.6 235.8 240.728 235.8 240.886V244.514C235.8 244.672 235.672 244.8 235.515 244.8H230.486C230.328 244.8 230.2 244.672 230.2 244.514V240.886ZM237.486 240.6C237.328 240.6 237.2 240.728 237.2 240.886V244.514C237.2 244.672 237.328 244.8 237.486 244.8H242.515C242.672 244.8 242.8 244.672 242.8 244.514V240.886C242.8 240.728 242.672 240.6 242.515 240.6H237.486ZM230.2 235.286C230.2 235.128 230.328 235 230.486 235H235.515C235.672 235 235.8 235.128 235.8 235.286V238.914C235.8 239.072 235.672 239.2 235.515 239.2H230.486C230.328 239.2 230.2 239.072 230.2 238.914V235.286ZM237.486 235C237.328 235 237.2 235.128 237.2 235.286V238.914C237.2 239.072 237.328 239.2 237.486 239.2H242.515C242.672 239.2 242.8 239.072 242.8 238.914V235.286C242.8 235.128 242.672 235 242.515 235H237.486Z" fill="#42C25F"/>
<defs>
<filter id="filter0_d" x="79.7002" y="105.5" width="34.6" height="43.5714" filterUnits="userSpaceOnUse" color-interpolation-filters="sRGB">
<feFlood flood-opacity="0" result="BackgroundImageFix"/>
<feColorMatrix in="SourceAlpha" type="matrix" values="0 0 0 0 0 0 0 0 0 0 0 0 0 0 0 0 0 0 127 0"/>
<feOffset dy="0.571428"/>
<feColorMatrix type="matrix" values="0 0 0 0 0.858859 0 0 0 0 0.871766 0 0 0 0 0.884673 0 0 0 1 0"/>
<feBlend mode="normal" in2="BackgroundImageFix" result="effect1_dropShadow"/>
<feBlend mode="normal" in="SourceGraphic" in2="effect1_dropShadow" result="shape"/>
</filter>
<filter id="filter1_d" x="136.2" y="110.2" width="33.6" height="34.1714" filterUnits="userSpaceOnUse" color-interpolation-filters="sRGB">
<feFlood flood-opacity="0" result="BackgroundImageFix"/>
<feColorMatrix in="SourceAlpha" type="matrix" values="0 0 0 0 0 0 0 0 0 0 0 0 0 0 0 0 0 0 127 0"/>
<feOffset dy="0.571429"/>
<feColorMatrix type="matrix" values="0 0 0 0 0.858859 0 0 0 0 0.871766 0 0 0 0 0.884673 0 0 0 1 0"/>
<feBlend mode="normal" in2="BackgroundImageFix" result="effect1_dropShadow"/>
<feBlend mode="normal" in="SourceGraphic" in2="effect1_dropShadow" result="shape"/>
</filter>
<filter id="filter2_d" x="192.2" y="106" width="33.6" height="42.5714" filterUnits="userSpaceOnUse" color-interpolation-filters="sRGB">
<feFlood flood-opacity="0" result="BackgroundImageFix"/>
<feColorMatrix in="SourceAlpha" type="matrix" values="0 0 0 0 0 0 0 0 0 0 0 0 0 0 0 0 0 0 127 0"/>
<feOffset dy="0.571429"/>
<feColorMatrix type="matrix" values="0 0 0 0 0.858859 0 0 0 0 0.871766 0 0 0 0 0.884673 0 0 0 1 0"/>
<feBlend mode="normal" in2="BackgroundImageFix" result="effect1_dropShadow"/>
<feBlend mode="normal" in="SourceGraphic" in2="effect1_dropShadow" result="shape"/>
</filter>
<filter id="filter3_d" x="216.2" y="109" width="33.6" height="42.5714" filterUnits="userSpaceOnUse" color-interpolation-filters="sRGB">
<feFlood flood-opacity="0" result="BackgroundImageFix"/>
<feColorMatrix in="SourceAlpha" type="matrix" values="0 0 0 0 0 0 0 0 0 0 0 0 0 0 0 0 0 0 127 0"/>
<feOffset dy="0.571428"/>
<feColorMatrix type="matrix" values="0 0 0 0 0.858859 0 0 0 0 0.871766 0 0 0 0 0.884673 0 0 0 1 0"/>
<feBlend mode="normal" in2="BackgroundImageFix" result="effect1_dropShadow"/>
<feBlend mode="normal" in="SourceGraphic" in2="effect1_dropShadow" result="shape"/>
</filter>
<filter id="filter4_d" x="215.7" y="108.5" width="34.6" height="43.5714" filterUnits="userSpaceOnUse" color-interpolation-filters="sRGB">
<feFlood flood-opacity="0" result="BackgroundImageFix"/>
<feColorMatrix in="SourceAlpha" type="matrix" values="0 0 0 0 0 0 0 0 0 0 0 0 0 0 0 0 0 0 127 0"/>
<feOffset dy="0.571428"/>
<feColorMatrix type="matrix" values="0 0 0 0 0.858859 0 0 0 0 0.871766 0 0 0 0 0.884673 0 0 0 1 0"/>
<feBlend mode="normal" in2="BackgroundImageFix" result="effect1_dropShadow"/>
<feBlend mode="normal" in="SourceGraphic" in2="effect1_dropShadow" result="shape"/>
</filter>
<filter id="filter5_d" x="216.2" y="169.2" width="33.6" height="34.1714" filterUnits="userSpaceOnUse" color-interpolation-filters="sRGB">
<feFlood flood-opacity="0" result="BackgroundImageFix"/>
<feColorMatrix in="SourceAlpha" type="matrix" values="0 0 0 0 0 0 0 0 0 0 0 0 0 0 0 0 0 0 127 0"/>
<feOffset dy="0.571429"/>
<feColorMatrix type="matrix" values="0 0 0 0 0.858859 0 0 0 0 0.871766 0 0 0 0 0.884673 0 0 0 1 0"/>
<feBlend mode="normal" in2="BackgroundImageFix" result="effect1_dropShadow"/>
<feBlend mode="normal" in="SourceGraphic" in2="effect1_dropShadow" result="shape"/>
</filter>
<filter id="filter6_d" x="216.2" y="221" width="33.6" height="42.5714" filterUnits="userSpaceOnUse" color-interpolation-filters="sRGB">
<feFlood flood-opacity="0" result="BackgroundImageFix"/>
<feColorMatrix in="SourceAlpha" type="matrix" values="0 0 0 0 0 0 0 0 0 0 0 0 0 0 0 0 0 0 127 0"/>
<feOffset dy="0.571429"/>
<feColorMatrix type="matrix" values="0 0 0 0 0.858859 0 0 0 0 0.871766 0 0 0 0 0.884673 0 0 0 1 0"/>
<feBlend mode="normal" in2="BackgroundImageFix" result="effect1_dropShadow"/>
<feBlend mode="normal" in="SourceGraphic" in2="effect1_dropShadow" result="shape"/>
</filter>
</defs>
</svg>
